<?xml version="1.0" encoding="utf-8"?>
<!-- Generator: Adobe Illustrator 24.0.0, SVG Export Plug-In . SVG Version: 6.00 Build 0)  -->
<svg version="1.1" id="Layer_1" xmlns="http://www.w3.org/2000/svg" xmlns:xlink="http://www.w3.org/1999/xlink" x="0px" y="0px"
	 viewBox="0 0 4000 4000" style="enable-background:new 0 0 4000 4000;" xml:space="preserve">
<style type="text/css">
	.st0{fill:#22252B;}
	.st1{fill:#A6B1BC;}
	.st2{fill:#15191E;}
	.st3{opacity:0.55;}
	.st4{fill:#FFFFFF;}
	.st5{fill:#BECAD8;}
	.st6{opacity:0.3;}
	.st7{fill:#FFEB50;}
	.st8{opacity:0.67;}
	.st9{fill:#91B5C4;}
	.st10{clip-path:url(#SVGID_7_);}
	.st11{clip-path:url(#SVGID_8_);fill:url(#SVGID_9_);}
	.st12{opacity:0.55;fill:url(#SVGID_10_);enable-background:new    ;}
	.st13{clip-path:url(#SVGID_13_);}
	.st14{clip-path:url(#SVGID_14_);fill:url(#SVGID_15_);}
	.st15{opacity:0.55;fill:url(#SVGID_16_);enable-background:new    ;}
	.st16{clip-path:url(#SVGID_19_);}
	.st17{clip-path:url(#SVGID_20_);fill:url(#SVGID_21_);}
	.st18{opacity:0.55;fill:url(#SVGID_22_);enable-background:new    ;}
	.st19{clip-path:url(#SVGID_25_);}
	.st20{clip-path:url(#SVGID_26_);fill:url(#SVGID_27_);}
	.st21{opacity:0.55;fill:url(#SVGID_28_);enable-background:new    ;}
</style>
<g>
	<polygon class="st0" points="3209.9,2760.9 1872.9,2760.9 1842.4,3079.6 3194.9,3079.6 	"/>
	<path class="st0" d="M3197.4,3082.3h-1358l31-324.1h1342.4L3197.4,3082.3z M1845.4,3076.8h1346.8l14.8-313.3H1875.4L1845.4,3076.8z
		"/>
</g>
<g>
	<path class="st1" d="M2861.2,3227.9h-661.5l77.6-283c7.1-26,30.7-44,57.7-44h410.9c28.4,0,53,20,58.6,47.9L2861.2,3227.9z"/>
	<path class="st2" d="M2864.4,3230.6h-668.1l78.5-286.3c7.4-27,32.2-45.9,60.2-45.9h410.9c29.6,0,55.3,21,61.2,50L2864.4,3230.6z
		 M2203.2,3225.3H2858l-56.1-276c-5.4-26.6-29-45.8-56.1-45.8H2335c-25.7,0-48.4,17.3-55.2,42.1L2203.2,3225.3z"/>
</g>
<g class="st3">
	<path class="st4" d="M2861.2,3227.9h-9.3l-47.4-233.3c-5.7-27.8-30.2-47.9-58.6-47.9H2335c-26.9,0-50.6,18-57.7,44l-65,237.2h-12.5
		l77.6-283c7.1-26,30.8-44,57.7-44H2746c28.5,0,52.9,20.1,58.6,47.9L2861.2,3227.9z"/>
</g>
<g>
	<rect x="1911.8" y="3051.5" class="st2" width="1275.3" height="174.3"/>
</g>
<g>
	<path class="st2" d="M2861.2,3246.2h-661.5c-5.7,0-11.1-2.7-14.5-7.2c-3.5-4.5-4.6-10.4-3.1-15.9l79.9-291.6
		c7.9-28.8,34.3-48.9,64.1-48.9h429.2c31.5,0,58.9,22.4,65.1,53.2l58.6,288.4c1.1,5.4-0.3,10.9-3.8,15.2
		C2871.9,3243.7,2866.7,3246.2,2861.2,3246.2z M2223.7,3209.7h615.2l-54.1-266.5c-2.8-13.9-15.2-24-29.3-24h-429.2
		c-13.4,0-25.3,9.1-28.9,22L2223.7,3209.7z"/>
</g>
<g>
	
		<ellipse transform="matrix(0.7071 -0.7071 0.7071 0.7071 -1568.8008 2201.3796)" class="st5" cx="1872.9" cy="2994.4" rx="233.5" ry="233.5"/>
	<path class="st2" d="M1872.9,3230.6c-130.2,0-236.2-105.9-236.2-236.2s105.9-236.2,236.2-236.2s236.2,105.9,236.2,236.2
		S2003.1,3230.6,1872.9,3230.6z M1872.9,2763.5c-127.3,0-230.9,103.6-230.9,230.9s103.6,230.9,230.9,230.9s230.9-103.6,230.9-230.9
		S2000.2,2763.5,1872.9,2763.5z"/>
</g>
<g>
	<circle class="st1" cx="1872.9" cy="2994.4" r="140.6"/>
</g>
<g class="st6">
	<path class="st2" d="M2013.5,2994.4c0,3.8-0.2,7.6-0.5,11.3c-5.7-72.4-66.2-129.3-140.1-129.3s-134.4,56.9-140.1,129.3
		c-0.3-3.7-0.5-7.5-0.5-11.3c0-77.7,62.9-140.6,140.6-140.6C1950.5,2853.8,2013.5,2916.7,2013.5,2994.4z"/>
</g>
<g class="st3">
	<path class="st4" d="M2013.5,3014.2c0,77.7-63,140.6-140.6,140.6c-77.7,0-140.6-63-140.6-140.6c0-3.3,0.1-6.6,0.4-9.9
		c5,73.1,65.8,130.7,140.2,130.7c74.3,0,135.2-57.7,140.2-130.7C2013.4,3007.6,2013.5,3010.9,2013.5,3014.2z"/>
</g>
<g>
	<circle class="st2" cx="1872.9" cy="2994.4" r="62.1"/>
</g>
<g class="st3">
	<path class="st4" d="M1913.4,2988.9c0,1.2-0.1,2.4-0.2,3.6c-1.9-19.5-19.3-34.8-40.4-34.8s-38.4,15.3-40.3,34.8
		c-0.1-1.2-0.2-2.4-0.2-3.6c0-21.2,18.1-38.4,40.5-38.4C1895.3,2950.5,1913.4,2967.7,1913.4,2988.9z"/>
</g>
<g class="st6">
	<path class="st2" d="M1935,3025.5c0,34.3-27.8,62.1-62.1,62.1c-34.3,0-62.1-27.8-62.1-62.1c0-5.4,0.7-10.6,2-15.5
		c6.9,26.7,31.2,46.5,60.1,46.5s53.2-19.8,60.1-46.5C1934.3,3014.9,1935,3020.1,1935,3025.5z"/>
</g>
<g>
	<path class="st2" d="M1872.9,3246.2c-138.8,0-251.8-113-251.8-251.8s113-251.8,251.8-251.8s251.8,113,251.8,251.8
		S2011.7,3246.2,1872.9,3246.2z M1872.9,2779.1c-118.7,0-215.3,96.6-215.3,215.3s96.6,215.3,215.3,215.3s215.3-96.6,215.3-215.3
		S1991.6,2779.1,1872.9,2779.1z"/>
</g>
<g>
	<circle class="st5" cx="3194.9" cy="2994.4" r="233.5"/>
	<path class="st2" d="M3194.9,3230.6c-130.2,0-236.2-105.9-236.2-236.2s105.9-236.2,236.2-236.2c130.2,0,236.2,105.9,236.2,236.2
		S3325.1,3230.6,3194.9,3230.6z M3194.9,2763.5c-127.3,0-230.9,103.6-230.9,230.9s103.6,230.9,230.9,230.9s230.9-103.6,230.9-230.9
		S3322.2,2763.5,3194.9,2763.5z"/>
</g>
<g>
	<circle class="st1" cx="3194.9" cy="2994.4" r="140.6"/>
</g>
<g class="st6">
	<path class="st2" d="M3335.5,2994.4c0,3.8-0.2,7.6-0.5,11.3c-5.7-72.4-66.2-129.3-140.1-129.3c-73.9,0-134.4,56.9-140.1,129.3
		c-0.3-3.7-0.5-7.5-0.5-11.3c0-77.7,62.9-140.6,140.6-140.6C3272.5,2853.8,3335.5,2916.7,3335.5,2994.4z"/>
</g>
<g class="st3">
	<path class="st4" d="M3335.5,3014.2c0,77.7-63,140.6-140.6,140.6c-77.7,0-140.6-63-140.6-140.6c0-3.3,0.1-6.6,0.4-9.9
		c5,73.1,65.8,130.7,140.2,130.7c74.3,0,135.2-57.7,140.2-130.7C3335.4,3007.6,3335.5,3010.9,3335.5,3014.2z"/>
</g>
<g>
	<circle class="st2" cx="3194.9" cy="2994.4" r="62.1"/>
</g>
<g class="st6">
	<path class="st2" d="M3257,3025.5c0,34.3-27.8,62.1-62.1,62.1s-62.1-27.8-62.1-62.1c0-5.4,0.7-10.6,2-15.5
		c6.9,26.7,31.2,46.5,60.1,46.5c28.9,0,53.2-19.8,60.1-46.5C3256.3,3014.9,3257,3020.1,3257,3025.5z"/>
</g>
<g>
	<path class="st2" d="M3194.9,3246.2c-138.8,0-251.8-113-251.8-251.8s113-251.8,251.8-251.8s251.8,113,251.8,251.8
		S3333.7,3246.2,3194.9,3246.2z M3194.9,2779.1c-118.7,0-215.3,96.6-215.3,215.3s96.6,215.3,215.3,215.3s215.3-96.6,215.3-215.3
		S3313.6,2779.1,3194.9,2779.1z"/>
</g>
<g>
	<path class="st2" d="M3194.9,3246.2h-1322c-10.1,0-18.3-8.2-18.3-18.3s8.2-18.3,18.3-18.3h1322c10.1,0,18.3,8.2,18.3,18.3
		S3205,3246.2,3194.9,3246.2z"/>
</g>
<g>
	<path class="st2" d="M3209.9,2779.1h-1337c-10.1,0-18.3-8.2-18.3-18.3s8.2-18.3,18.3-18.3H3210c10.1,0,18.3,8.2,18.3,18.3
		S3220,2779.1,3209.9,2779.1z"/>
</g>
<g>
	<g>
		<ellipse class="st5" cx="2248.4" cy="3110.3" rx="113" ry="113"/>
		<path class="st2" d="M2248.4,3225.8c-63.7,0-115.6-51.8-115.6-115.6s51.8-115.6,115.6-115.6s115.6,51.8,115.6,115.6
			S2312.1,3225.8,2248.4,3225.8z M2248.4,2999.9c-60.8,0-110.3,49.5-110.3,110.3s49.5,110.3,110.3,110.3s110.3-49.5,110.3-110.3
			S2309.3,2999.9,2248.4,2999.9z"/>
	</g>
	<g>
		<ellipse class="st1" cx="2248.5" cy="3110.3" rx="58.7" ry="58.7"/>
	</g>
	<g class="st3">
		<path class="st4" d="M2307.2,3117.2c0,32.4-26.3,58.8-58.8,58.8s-58.8-26.3-58.8-58.8c0-1.1,0.1-2.3,0.1-3.5
			c1.8,30.8,27.4,55.3,58.7,55.3s56.9-24.4,58.7-55.3C2307.1,3114.9,2307.2,3116.1,2307.2,3117.2z"/>
	</g>
	<g class="st6">
		<path class="st2" d="M2307.2,3110.3c0,3-0.2,6.1-0.7,9c-4.4-28.1-28.7-49.6-58.1-49.6s-53.7,21.5-58.1,49.6
			c-0.5-2.9-0.7-5.9-0.7-9c0-32.4,26.3-58.7,58.8-58.7S2307.2,3077.8,2307.2,3110.3z"/>
	</g>
	<g>
		<ellipse class="st2" cx="2248.5" cy="3110.3" rx="30.9" ry="30.9"/>
	</g>
	<g class="st6">
		<path class="st2" d="M2279.3,3124.2c0,17.1-13.8,30.9-30.9,30.9s-30.9-13.8-30.9-30.9c0-2.4,0.3-4.7,0.8-7
			c3.1,13.7,15.4,23.9,30.1,23.9s27-10.2,30.1-23.9C2279,3119.4,2279.3,3121.8,2279.3,3124.2z"/>
	</g>
	<g class="st3">
		<path class="st4" d="M2264.9,3105.5c0,0.6-0.1,1.2-0.2,1.8c-1.1-6.8-8-12-16.4-12s-15.3,5.2-16.4,12c-0.1-0.6-0.2-1.2-0.2-1.8
			c0-7.6,7.4-13.8,16.5-13.8S2264.9,3097.8,2264.9,3105.5z"/>
	</g>
	<g>
		<path class="st2" d="M2248.4,3238.9c-70.9,0-128.6-57.7-128.6-128.6s57.7-128.6,128.6-128.6s128.6,57.7,128.6,128.6
			S2319.4,3238.9,2248.4,3238.9z M2248.4,3013c-53.6,0-97.3,43.6-97.3,97.3s43.6,97.3,97.3,97.3s97.3-43.6,97.3-97.3
			S2302.1,3013,2248.4,3013z"/>
	</g>
</g>
<g>
	<g>
		<ellipse class="st5" cx="2530.5" cy="3110.3" rx="113" ry="113"/>
		<path class="st2" d="M2530.5,3225.8c-63.7,0-115.6-51.8-115.6-115.6s51.8-115.6,115.6-115.6s115.6,51.8,115.6,115.6
			S2594.2,3225.8,2530.5,3225.8z M2530.5,2999.9c-60.8,0-110.3,49.5-110.3,110.3s49.5,110.3,110.3,110.3s110.3-49.5,110.3-110.3
			S2591.3,2999.9,2530.5,2999.9z"/>
	</g>
	<g>
		<ellipse class="st1" cx="2530.6" cy="3110.3" rx="58.7" ry="58.7"/>
	</g>
	<g class="st3">
		<path class="st4" d="M2589.3,3117.2c0,32.4-26.3,58.8-58.8,58.8c-32.4,0-58.8-26.3-58.8-58.8c0-1.1,0.1-2.3,0.1-3.5
			c1.8,30.8,27.4,55.3,58.7,55.3s56.9-24.4,58.7-55.3C2589.2,3114.9,2589.3,3116.1,2589.3,3117.2z"/>
	</g>
	<g class="st6">
		<path class="st2" d="M2589.3,3110.3c0,3-0.2,6.1-0.7,9c-4.4-28.1-28.7-49.6-58.1-49.6s-53.7,21.5-58.1,49.6
			c-0.5-2.9-0.7-5.9-0.7-9c0-32.4,26.3-58.7,58.8-58.7C2562.9,3051.5,2589.3,3077.8,2589.3,3110.3z"/>
	</g>
	<g>
		<ellipse class="st2" cx="2530.6" cy="3110.3" rx="30.9" ry="30.9"/>
	</g>
	<g class="st6">
		<path class="st2" d="M2561.4,3124.2c0,17.1-13.8,30.9-30.9,30.9c-17.1,0-30.9-13.8-30.9-30.9c0-2.4,0.3-4.7,0.8-7
			c3.1,13.7,15.4,23.9,30.1,23.9s27-10.2,30.1-23.9C2561.1,3119.4,2561.4,3121.8,2561.4,3124.2z"/>
	</g>
	<g class="st3">
		<path class="st4" d="M2547,3105.5c0,0.6-0.1,1.2-0.2,1.8c-1.1-6.8-8-12-16.4-12s-15.3,5.2-16.4,12c-0.1-0.6-0.2-1.2-0.2-1.8
			c0-7.6,7.4-13.8,16.5-13.8S2547,3097.8,2547,3105.5z"/>
	</g>
	<g>
		<path class="st2" d="M2530.5,3238.9c-70.9,0-128.6-57.7-128.6-128.6s57.7-128.6,128.6-128.6s128.6,57.7,128.6,128.6
			S2601.4,3238.9,2530.5,3238.9z M2530.5,3013c-53.6,0-97.3,43.6-97.3,97.3s43.6,97.3,97.3,97.3s97.3-43.6,97.3-97.3
			S2584.1,3013,2530.5,3013z"/>
	</g>
</g>
<g>
	<rect x="2351" y="2570.4" class="st1" width="564.1" height="190.4"/>
	<path class="st2" d="M2917.7,2763.5h-569.4v-195.6h569.4L2917.7,2763.5L2917.7,2763.5z M2353.6,2758.2h558.9V2573h-558.9V2758.2z"
		/>
</g>
<g class="st6">
	<rect x="2351" y="2570.4" class="st2" width="564.1" height="117.6"/>
</g>
<g>
	<path class="st2" d="M2915.1,2779.1H2351c-10.1,0-18.3-8.2-18.3-18.3v-190.4c0-10.1,8.2-18.3,18.3-18.3h564.1
		c10.1,0,18.3,8.2,18.3,18.3v190.4C2933.4,2770.9,2925.2,2779.1,2915.1,2779.1z M2369.2,2742.6h527.6v-153.9h-527.6L2369.2,2742.6
		L2369.2,2742.6z"/>
</g>
<g>
	<path class="st7" d="M3108.4,2071.9h-246.5v-228.7H3058c27.8,0,50.4,22.6,50.4,50.4V2071.9z"/>
	<path class="st2" d="M3111,2074.5h-251.7v-234H3058c29.2,0,53,23.8,53,53V2074.5z M2864.5,2069.3h241.2v-175.7
		c0-26.4-21.4-47.8-47.8-47.8h-193.4V2069.3z"/>
</g>
<g class="st3">
	<path class="st4" d="M3108.4,1893.6v41.1c0-27.8-22.6-50.4-50.4-50.4h-196.1v-41.1H3058C3085.8,1843.2,3108.4,1865.8,3108.4,1893.6
		z"/>
</g>
<g>
	<path class="st2" d="M3108.4,2090.2h-246.5c-10.1,0-18.3-8.2-18.3-18.3v-228.7c0-10.1,8.2-18.3,18.3-18.3H3058
		c37.9,0,68.7,30.8,68.7,68.7v178.3C3126.6,2082,3118.5,2090.2,3108.4,2090.2z M2880.2,2053.7h209.9v-160.1
		c0-17.7-14.4-32.1-32.1-32.1h-177.8L2880.2,2053.7L2880.2,2053.7z"/>
</g>
<g>
	<path class="st7" d="M2007.7,2505.1v-377.2l180.3-533.7c16.7-49.3,62.9-82.5,114.9-82.5h504.8c29.9,0,54.1,24.2,54.1,54.1v446.3
		c0,33,26.8,59.8,59.8,59.8h244.6c54.7,0,99,44.3,99,99v334.2"/>
	<path class="st2" d="M3267.8,2505.1h-5.2v-334.2c0-53.1-43.2-96.3-96.3-96.3h-244.6c-34.4,0-62.4-28-62.4-62.4v-446.3
		c0-28.4-23.1-51.5-51.5-51.5H2303c-51,0-96.2,32.4-112.5,80.7l-180.2,533.3v376.7h-5.2v-377.6l0.1-0.4l180.3-533.7
		c17-50.4,64.2-84.3,117.4-84.3h504.8c31.3,0,56.8,25.5,56.8,56.8v446.3c0,31.5,25.6,57.1,57.1,57.1h244.6
		c56,0,101.6,45.6,101.6,101.6L3267.8,2505.1L3267.8,2505.1z"/>
</g>
<g>
	<g class="st6">
		<path class="st2" d="M3190.3,2337.5c-5.4,0-9.8,4.4-9.8,9.8v40.1c0,15.5-12.5,28-28,28h-162.4c-15.5,0-28-12.5-28-28v-50h-410.8
			c-4,0-7.3,3.3-7.3,7.3v32.9c0,20.4-16.5,36.9-36.9,36.9h-36.9c20.4,0,36.9-16.5,36.9-36.9v-40.2h-351.3c-4,0-7.3,3.3-7.3,7.3v32.9
			c0,20.3,16.5,36.9,36.9,36.9h-36.9c-20.4,0-36.9-16.5-36.9-36.9v-40.2h-104v131h1257.6v-131L3190.3,2337.5L3190.3,2337.5z"/>
	</g>
</g>
<g class="st3">
	<path class="st4" d="M2861.9,1602.4c0-29.9-24.3-54.2-54.2-54.2h-504.8c-52,0-98.3,33.2-114.9,82.5l-180.3,533.7v-51.8l180.3-533.7
		c16.6-49.3,62.9-82.5,114.9-82.5h504.8c29.9,0,54.2,24.3,54.2,54.2V1602.4z"/>
</g>
<g class="st3">
	<path class="st4" d="M3265.2,2160.4v51.8c0-54.7-44.3-99-99-99h-244.6c-33,0-59.8-26.7-59.8-59.7v-51.8c0,33,26.8,59.7,59.8,59.7
		h244.6C3220.9,2061.4,3265.2,2105.8,3265.2,2160.4z"/>
</g>
<g>
	<path class="st2" d="M2507.2,1632.2v2.8h-148.3c-16.3,0-30.9,10.4-36.2,25.8l-163.6,471.9c-2.5,7.2-3.1,14.5-2.2,21.3
		c-31.4-1.2-52.9-32.5-42.6-62.4l163.6-471.9c5.3-15.5,19.9-25.8,36.2-25.8h154.8C2490,1593.9,2507.2,1611.1,2507.2,1632.2z"/>
</g>
<g>
	<path class="st2" d="M2770.9,1621.9v13.1h-104.6c-15.5,0-28,12.5-28,28v386.5h-16.8c-15.5,0-28-12.5-28-28v-399.6
		c0-15.5,12.5-28,28-28h121.4C2758.3,1593.9,2770.9,1606.5,2770.9,1621.9z"/>
</g>
<g>
	<path class="st2" d="M3265.2,2523.4c-10.1,0-18.3-8.2-18.3-18.3v-334.2c0-44.5-36.2-80.7-80.7-80.7h-244.6c-43,0-78-35-78-78
		v-446.3c0-19.8-16.1-35.9-35.9-35.9h-504.8c-44.2,0-83.5,28.2-97.6,70.1l-179.4,530.8v374.2c0,10.1-8.2,18.3-18.3,18.3
		s-18.3-8.2-18.3-18.3v-377.2c0-2,0.3-4,1-5.8l180.3-533.7c19.2-56.8,72.3-94.9,132.3-94.9h504.8c39.9,0,72.4,32.5,72.4,72.4v446.3
		c0,22.9,18.6,41.5,41.5,41.5h244.6c64.6,0,117.2,52.6,117.2,117.2v334.2C3283.5,2515.2,3275.3,2523.4,3265.2,2523.4z"/>
</g>
<g class="st8">
	<path class="st9" d="M2507.2,1632.2v417.3l-35.7,34.5l-55.1,53.3l-17.5,16.9h-240.1c-32.4,0-55.1-31.9-44.5-62.5l40.9-118.1
		l54.9-158.4l31.4-90.4l31.2-89.9l5.2-15.1c5.3-15.5,19.9-25.8,36.2-25.8h154.8C2490,1593.9,2507.2,1611.1,2507.2,1632.2z"/>
</g>
<g>
	<g>
		<defs>
			<polygon id="SVGID_1_" points="1,1 2,1 1,2 			"/>
		</defs>
		<defs>
			<polygon id="SVGID_4_" points="-1,-1 -2,-1 -1,-2 			"/>
		</defs>
		<clipPath id="SVGID_7_">
			<use xlink:href="#SVGID_1_"  style="overflow:visible;"/>
		</clipPath>
		<clipPath id="SVGID_8_" class="st10">
			<use xlink:href="#SVGID_4_"  style="overflow:visible;"/>
		</clipPath>
		
			<linearGradient id="SVGID_9_" gradientUnits="userSpaceOnUse" x1="2249.1587" y1="2330.9333" x2="2509.6345" y2="1927.6155" gradientTransform="matrix(1 0 0 -1 0 4000)">
			<stop  offset="0" style="stop-color:#FFFFFF"/>
			<stop  offset="1" style="stop-color:#000000"/>
		</linearGradient>
		<polygon class="st11" points="2507.2,2001.1 2507.2,2049.5 2471.4,2083.9 2241.5,1724.7 2272.7,1634.8 		"/>
	</g>
</g>
<linearGradient id="SVGID_10_" gradientUnits="userSpaceOnUse" x1="2249.1587" y1="2330.9333" x2="2509.6345" y2="1927.6155" gradientTransform="matrix(1 0 0 -1 0 4000)">
	<stop  offset="0" style="stop-color:#FFFFFF"/>
	<stop  offset="1" style="stop-color:#FFFFFF"/>
</linearGradient>
<polygon class="st12" points="2507.2,2001.1 2507.2,2049.5 2471.4,2083.9 2241.5,1724.7 2272.7,1634.8 "/>
<g>
	<g>
		<defs>
			<polygon id="SVGID_11_" points="1,1 2,1 1,2 			"/>
		</defs>
		<defs>
			<polygon id="SVGID_12_" points="-1,-1 -2,-1 -1,-2 			"/>
		</defs>
		<clipPath id="SVGID_13_">
			<use xlink:href="#SVGID_11_"  style="overflow:visible;"/>
		</clipPath>
		<clipPath id="SVGID_14_" class="st13">
			<use xlink:href="#SVGID_12_"  style="overflow:visible;"/>
		</clipPath>
		
			<linearGradient id="SVGID_15_" gradientUnits="userSpaceOnUse" x1="2099.2114" y1="2234.092" x2="2359.6877" y2="1830.7737" gradientTransform="matrix(1 0 0 -1 0 4000)">
			<stop  offset="0" style="stop-color:#FFFFFF"/>
			<stop  offset="1" style="stop-color:#000000"/>
		</linearGradient>
		<polygon class="st14" points="2416.3,2137.2 2398.8,2154.1 2270.8,2154.1 2155.2,1973.5 2210.1,1815.1 		"/>
	</g>
</g>
<linearGradient id="SVGID_16_" gradientUnits="userSpaceOnUse" x1="2099.2114" y1="2234.092" x2="2359.6877" y2="1830.7737" gradientTransform="matrix(1 0 0 -1 0 4000)">
	<stop  offset="0" style="stop-color:#FFFFFF"/>
	<stop  offset="1" style="stop-color:#FFFFFF"/>
</linearGradient>
<polygon class="st15" points="2416.3,2137.2 2398.8,2154.1 2270.8,2154.1 2155.2,1973.5 2210.1,1815.1 "/>
<g class="st8">
	<path class="st9" d="M2770.9,1621.9v399.6c0,15.5-12.5,28-28,28h-121.4c-15.5,0-28-12.5-28-28v-399.6c0-6.8,2.4-13,6.4-17.8v-0.1
		c5.2-6.2,12.9-10.1,21.6-10.1h121.4C2758.3,1593.9,2770.9,1606.5,2770.9,1621.9z"/>
</g>
<g>
	<g>
		<defs>
			<polygon id="SVGID_17_" points="1,1 2,1 1,2 			"/>
		</defs>
		<defs>
			<polygon id="SVGID_18_" points="-1,-1 -2,-1 -1,-2 			"/>
		</defs>
		<clipPath id="SVGID_19_">
			<use xlink:href="#SVGID_17_"  style="overflow:visible;"/>
		</clipPath>
		<clipPath id="SVGID_20_" class="st16">
			<use xlink:href="#SVGID_18_"  style="overflow:visible;"/>
		</clipPath>
		
			<linearGradient id="SVGID_21_" gradientUnits="userSpaceOnUse" x1="2529.0366" y1="2530.9456" x2="2831.5247" y2="2108.9563" gradientTransform="matrix(1 0 0 -1 0 4000)">
			<stop  offset="0" style="stop-color:#FFFFFF"/>
			<stop  offset="1" style="stop-color:#000000"/>
		</linearGradient>
		<path class="st17" d="M2770.9,1759.4v111.8l-171-267v-0.1c5.2-6.2,12.9-10.1,21.6-10.1h43.5L2770.9,1759.4z"/>
	</g>
</g>
<linearGradient id="SVGID_22_" gradientUnits="userSpaceOnUse" x1="2529.0366" y1="2530.9456" x2="2831.5247" y2="2108.9563" gradientTransform="matrix(1 0 0 -1 0 4000)">
	<stop  offset="0" style="stop-color:#FFFFFF"/>
	<stop  offset="1" style="stop-color:#FFFFFF"/>
</linearGradient>
<path class="st18" d="M2770.9,1759.4v111.8l-171-267v-0.1c5.2-6.2,12.9-10.1,21.6-10.1h43.5L2770.9,1759.4z"/>
<g>
	<g>
		<defs>
			<polygon id="SVGID_23_" points="1,1 2,1 1,2 			"/>
		</defs>
		<defs>
			<polygon id="SVGID_24_" points="-1,-1 -2,-1 -1,-2 			"/>
		</defs>
		<clipPath id="SVGID_25_">
			<use xlink:href="#SVGID_23_"  style="overflow:visible;"/>
		</clipPath>
		<clipPath id="SVGID_26_" class="st19">
			<use xlink:href="#SVGID_24_"  style="overflow:visible;"/>
		</clipPath>
		
			<linearGradient id="SVGID_27_" gradientUnits="userSpaceOnUse" x1="2416.8721" y1="2450.5444" x2="2719.3601" y2="2028.5552" gradientTransform="matrix(1 0 0 -1 0 4000)">
			<stop  offset="0" style="stop-color:#FFFFFF"/>
			<stop  offset="1" style="stop-color:#000000"/>
		</linearGradient>
		<path class="st20" d="M2770.9,1961.8v59.7c0,15.5-12.5,28-28,28h-47.2l-102.2-159.6v-205.1L2770.9,1961.8z"/>
	</g>
</g>
<linearGradient id="SVGID_28_" gradientUnits="userSpaceOnUse" x1="2416.8721" y1="2450.5444" x2="2719.3601" y2="2028.5552" gradientTransform="matrix(1 0 0 -1 0 4000)">
	<stop  offset="0" style="stop-color:#FFFFFF"/>
	<stop  offset="1" style="stop-color:#FFFFFF"/>
</linearGradient>
<path class="st21" d="M2770.9,1961.8v59.7c0,15.5-12.5,28-28,28h-47.2l-102.2-159.6v-205.1L2770.9,1961.8z"/>
<g>
	<path class="st2" d="M2398.8,2168.1h-240.1c-20,0-38.1-9.4-49.8-25.7s-14.5-36.5-7.9-55.4l163.6-471.9c7.3-21,27.1-35.2,49.4-35.2
		h154.8c28.8,0,52.3,23.5,52.3,52.3v417.3c0,3.8-1.5,7.4-4.3,10.1l-108.3,104.6C2405.9,2166.7,2402.5,2168.1,2398.8,2168.1z
		 M2314,1607.9c-10.3,0-19.5,6.6-22.9,16.3l0,0l-163.6,471.9c-3.5,10.2-2,21.2,4.3,30s16.1,13.9,26.9,13.9h234.4l100-96.5v-411.4
		c0-13.4-10.9-24.3-24.3-24.3H2314V1607.9z M2277.9,1619.7L2277.9,1619.7L2277.9,1619.7z"/>
</g>
<g>
	<path class="st2" d="M2742.9,2063.5h-121.4c-23.2,0-42-18.8-42-42v-399.6c0-23.2,18.8-42,42-42h121.4c23.2,0,42,18.8,42,42v399.6
		C2784.9,2044.7,2766,2063.5,2742.9,2063.5z M2621.5,1607.9c-7.7,0-14,6.3-14,14v399.6c0,7.7,6.3,14,14,14h121.4c7.7,0,14-6.3,14-14
		v-399.6c0-7.7-6.3-14-14-14H2621.5z"/>
</g>
<g>
	<path class="st1" d="M3279.2,2629.1H2007.7c-15,0-27.1-12.1-27.1-27.1v-69.9c0-15,12.1-27.1,27.1-27.1h1271.6
		c15,0,27.1,12.1,27.1,27.1v69.9C3306.3,2617,3294.2,2629.1,3279.2,2629.1z"/>
	<path class="st2" d="M3279.2,2631.7H2007.7c-16.4,0-29.7-13.3-29.7-29.7v-69.9c0-16.4,13.3-29.7,29.7-29.7h1271.6
		c16.4,0,29.7,13.3,29.7,29.7v69.9C3308.9,2618.4,3295.6,2631.7,3279.2,2631.7z M2007.7,2507.7c-13.5,0-24.5,11-24.5,24.5v69.9
		c0,13.5,11,24.5,24.5,24.5h1271.6c13.5,0,24.5-11,24.5-24.5v-69.9c0-13.5-11-24.5-24.5-24.5H2007.7z"/>
</g>
<g class="st3">
	<path class="st4" d="M3306.3,2535v35.5c0-15-12.1-27.1-27.1-27.1H2007.7c-15,0-27.1,12.1-27.1,27.1V2535c0-15,12.1-27.1,27.1-27.1
		h1271.6C3294.2,2507.9,3306.3,2520,3306.3,2535z"/>
</g>
<g>
	<path class="st2" d="M3279.2,2647.4H2007.7c-25,0-45.3-20.3-45.3-45.3v-69.9c0-25,20.3-45.3,45.3-45.3h1271.6
		c25,0,45.3,20.3,45.3,45.3v69.9C3324.6,2627,3304.2,2647.4,3279.2,2647.4z M2007.7,2523.4c-4.9,0-8.8,4-8.8,8.8v69.9
		c0,4.9,4,8.8,8.8,8.8h1271.6c4.9,0,8.8-4,8.8-8.8v-69.9c0-4.9-4-8.8-8.8-8.8H2007.7z"/>
</g>
<g>
	<path class="st2" d="M2470.3,2428.6h-321.7c-28.1,0-50.9-22.8-50.9-50.9v-272.6c0-7.7,6.3-14,14-14s14,6.3,14,14v272.6
		c0,12.6,10.3,22.9,22.9,22.9h321.7c12.6,0,22.9-10.3,22.9-22.9v-328.2c0-7.7,6.3-14,14-14s14,6.3,14,14v328.2
		C2521.1,2405.7,2498.3,2428.6,2470.3,2428.6z"/>
</g>
<g>
	<path class="st2" d="M2366.9,2258.4L2366.9,2258.4c-18.9,0-34.3-15.4-34.3-34.3l0,0c0-5.8,4.7-10.5,10.5-10.5h47.6
		c5.8,0,10.5,4.7,10.5,10.5l0,0C2401.2,2243,2385.8,2258.4,2366.9,2258.4z"/>
</g>
<g>
	<path class="st1" d="M3125.2,2415.5h-162.4c-15.5,0-28-12.5-28-28V2225c0-15.5,12.5-28,28-28h162.4c15.5,0,28,12.5,28,28v162.4
		C3153.2,2402.9,3140.6,2415.5,3125.2,2415.5z"/>
	<path class="st2" d="M3125.2,2418.1h-162.4c-16.9,0-30.6-13.7-30.6-30.6V2225c0-16.9,13.7-30.6,30.6-30.6h162.4
		c16.9,0,30.6,13.7,30.6,30.6v162.4C3155.8,2404.4,3142.1,2418.1,3125.2,2418.1z M2962.7,2199.6c-14,0-25.4,11.4-25.4,25.4v162.4
		c0,14,11.4,25.4,25.4,25.4h162.4c14,0,25.4-11.4,25.4-25.4V2225c0-14-11.4-25.4-25.4-25.4H2962.7z"/>
</g>
<g>
	<path class="st2" d="M3125.2,2426.7h-162.4c-21.6,0-39.2-17.6-39.2-39.2V2225c0-21.6,17.6-39.2,39.2-39.2h162.4
		c21.6,0,39.2,17.6,39.2,39.2v162.4C3164.4,2409.1,3146.8,2426.7,3125.2,2426.7z M2962.7,2208.2c-9.3,0-16.8,7.5-16.8,16.8v162.4
		c0,9.3,7.5,16.8,16.8,16.8h162.4c9.3,0,16.8-7.5,16.8-16.8V2225c0-9.3-7.5-16.8-16.8-16.8H2962.7z"/>
</g>
<g>
	<path class="st2" d="M3113,2260.5h-136.3c-6.2,0-11.2-5-11.2-11.2s5-11.2,11.2-11.2H3113c6.2,0,11.2,5,11.2,11.2
		S3119.2,2260.5,3113,2260.5z"/>
</g>
<g>
	<path class="st2" d="M3113,2315.6h-136.3c-6.2,0-11.2-5-11.2-11.2s5-11.2,11.2-11.2H3113c6.2,0,11.2,5,11.2,11.2
		S3119.2,2315.6,3113,2315.6z"/>
</g>
<g>
	<path class="st2" d="M3113,2370.7h-136.3c-6.2,0-11.2-5-11.2-11.2s5-11.2,11.2-11.2H3113c6.2,0,11.2,5,11.2,11.2
		S3119.2,2370.7,3113,2370.7z"/>
</g>
<g>
	<path class="st5" d="M1608.4,2109.4l184.1,357.8L1690,2520l-184.1-357.8c-5.1-9.9-1.2-22,8.7-27.1l66.7-34.3
		C1591.2,2095.6,1603.4,2099.5,1608.4,2109.4z"/>
	<path class="st2" d="M1688.8,2523.5l-185.3-360.1c-5.7-11.2-1.3-24.9,9.8-30.7l66.7-34.3c11.2-5.7,24.9-1.3,30.7,9.8l185.3,360.1
		L1688.8,2523.5z M1590.5,2101.1c-2.7,0-5.4,0.6-8,1.9l-66.7,34.3c-8.6,4.4-12,15-7.6,23.6l182.9,355.4l97.9-50.4l-182.9-355.4
		C1603,2104.6,1596.9,2101.1,1590.5,2101.1z"/>
</g>
<g class="st3">
	<path class="st4" d="M1792.5,2467.2l-31.5,16.2l-184-357.6c-5.1-9.9-17.3-13.8-27.2-8.7l-37.4,19.2c0.7-0.5,1.3-0.9,2.1-1.2
		l66.8-34.4c9.9-5.1,22-1.2,27.1,8.7L1792.5,2467.2z"/>
</g>
<g>
	<path class="st7" d="M608.8,1466.2l-51.4,992H434.3v-896l-85.4-99.1v-245.9c0-32.3,26.1-58.3,58.3-58.3h44.9
		c13.5,0,26.3,4.7,36.4,12.8c8,6.4,14.4,14.9,18.2,24.9l7.8,20.6L608.8,1466.2z"/>
	<path class="st2" d="M559.9,2460.9H431.7v-897.7l-85.4-99.1v-246.8c0-33.6,27.3-61,61-61h44.9c13.8,0,27.3,4.7,38,13.3
		c8.6,6.9,15.1,15.9,19,26l102.2,270.1v0.5L559.9,2460.9z M436.9,2455.6h118l51.2-989l-101.8-269.1c-3.5-9.3-9.5-17.5-17.3-23.8
		c-9.8-7.9-22.2-12.2-34.8-12.2h-44.9c-30.7,0-55.7,25-55.7,55.7v244.9l85.4,99.1v894.4H436.9z"/>
</g>
<g>
	<polygon class="st5" points="1578.7,2102.1 1517.2,2133.7 1358.2,1838.1 1299.3,1728.5 1318.3,1718.7 1360.8,1696.8 1379.8,1732.2 
		1417.2,1801.7 	"/>
	<path class="st2" d="M1516.1,2137.2l-220.3-409.8l66.2-34.1l220.3,409.8L1516.1,2137.2z M1302.9,1729.6l215.4,400.6l56.9-29.3
		l-215.4-400.6L1302.9,1729.6z"/>
</g>
<g>
	<path class="st2" d="M1690,2536.7c-6.1,0-11.9-3.3-14.9-9.1L1491,2169.8c-9.3-18.1-2.2-40.4,15.9-49.7l66.7-34.3
		c18.1-9.3,40.3-2.2,49.6,15.9l0,0l184.1,357.8c2,3.9,2.4,8.5,1.1,12.8c-1.4,4.2-4.3,7.7-8.3,9.8l-102.6,52.8
		C1695.2,2536.1,1692.5,2536.7,1690,2536.7z M1590.5,2115.2c-0.5,0-1.1,0.1-1.6,0.4l-66.7,34.3c-1.7,0.9-2.3,2.9-1.5,4.6
		l176.4,342.9l72.9-37.5L1593.5,2117l0,0C1593,2115.9,1591.8,2115.2,1590.5,2115.2z"/>
</g>
<g>
	<path class="st2" d="M1517.2,2150.4c-6,0-11.7-3.2-14.7-8.8l-217.9-405.2c-2.1-4-2.6-8.6-1.2-12.9s4.3-7.9,8.3-9.9l61.5-31.7
		c8.1-4.2,18.1-1.1,22.4,6.9l217.9,405.2c2.1,4,2.6,8.6,1.2,12.9s-4.3,7.9-8.3,9.9l-61.5,31.7
		C1522.4,2149.8,1519.8,2150.4,1517.2,2150.4z M1322.1,1735.6l202,375.7l31.8-16.4l-202-375.7L1322.1,1735.6z"/>
</g>
<g>
	<path class="st2" d="M557.4,2475H434.3c-9.2,0-16.7-7.5-16.7-16.7v-889.8l-81.4-94.4c-2.6-3-4.1-6.9-4.1-10.9v-245.9
		c0-41.4,33.7-75.1,75.1-75.1h44.9c31,0,59.2,19.5,70.2,48.5l102,269.6c0.8,2.2,1.2,4.5,1.1,6.8L574,2459.2
		C573.6,2468,566.3,2475,557.4,2475z M451.1,2441.5h90.5l50.3-972.7l-100.8-266.3c-6.1-16.1-21.7-26.9-38.9-26.9h-44.9
		c-23,0-41.6,18.7-41.6,41.6v239.7l81.4,94.4c2.6,3,4.1,6.9,4.1,10.9L451.1,2441.5L451.1,2441.5z"/>
</g>
<g>
	
		<ellipse transform="matrix(0.7071 -0.7071 0.7071 0.7071 -839.9601 731.825)" class="st2" cx="463.4" cy="1379.8" rx="74.9" ry="74.9"/>
</g>
<g>
	<path class="st1" d="M1707.9,2540.5h322.8V2376h-322.8c-19.6,0-35.4,15.9-35.4,35.4v93.6
		C1672.5,2524.6,1688.3,2540.5,1707.9,2540.5z"/>
	<path class="st2" d="M2033.3,2543.1h-325.4c-21,0-38.1-17.1-38.1-38v-93.6c0-21,17.1-38.1,38.1-38.1h325.4V2543.1z M1707.9,2378.6
		c-18.1,0-32.8,14.7-32.8,32.8v93.6c0,18.1,14.7,32.8,32.8,32.8H2028v-159.3L1707.9,2378.6L1707.9,2378.6z"/>
</g>
<g class="st3">
	<path class="st4" d="M2030.7,2376v41h-322.8c-19.6,0-35.4,15.8-35.4,35.4v-41c0-19.6,15.8-35.4,35.4-35.4H2030.7z"/>
</g>
<g>
	<path class="st5" d="M987.8,1187.1L1395,1276c50.8,11.1,83,61.3,71.9,112.1l-4.5,20.7l-499.3-109c-11.6-2.5-19-14-16.5-25.6
		l15.4-70.6C964.7,1191.9,976.1,1184.5,987.8,1187.1z"/>
	<path class="st2" d="M1464.4,1411.9l-501.8-109.6c-6.3-1.4-11.7-5.1-15.2-10.6c-3.5-5.4-4.6-11.9-3.3-18.2l15.4-70.6
		c2.8-13,15.8-21.3,28.8-18.4l407.3,88.9c52.1,11.4,85.3,63.1,73.9,115.2L1464.4,1411.9z M983.2,1189.2c-8.7,0-16.6,6-18.5,14.9
		l-15.4,70.6c-2.2,10.2,4.3,20.3,14.5,22.5l496.7,108.4l4-18.2c10.8-49.3-20.6-98.2-69.9-109l-407.3-88.9
		C985.8,1189.3,984.5,1189.2,983.2,1189.2z"/>
</g>
<g class="st6">
	<path class="st2" d="M1469.2,1368.4c-0.1,6.5-0.8,13.1-2.2,19.7l-4.6,20.7l-499.3-109c-11.6-2.5-19-14-16.5-25.6l6.9-31.4
		c1.6,8.1,7.9,14.8,16.5,16.7L1469.2,1368.4z"/>
</g>
<g class="st3">
	<path class="st4" d="M1467,1388.1l-4.6,20.7l-3.2-0.7c3.4-46-27.5-88.6-73.8-98.8l-407.3-88.9c-8.2-1.8-16.4,1.4-21.3,7.5l5.3-24.4
		c2.5-11.6,14-19,25.6-16.5l407.3,89C1445.9,1287.1,1478.1,1337.3,1467,1388.1z"/>
</g>
<g>
	
		<rect x="659.6" y="915.8" transform="matrix(0.2133 -0.977 0.977 0.2133 -608.7505 1608.1294)" class="st5" width="69.2" height="532.6"/>
	<path class="st2" d="M949,1275.8l-525.4-114.7l15.9-72.7L964.9,1203L949,1275.8z M429.8,1157.1L945,1269.5l13.7-62.5l-515.2-112.5
		L429.8,1157.1z"/>
</g>
<g class="st3">
	<polygon class="st4" points="961.8,1205 955.6,1233.5 435.3,1119.9 441.5,1091.5 	"/>
</g>
<g class="st6">
	<path class="st2" d="M1417.2,1801.7c-13.9,19.6-35.3,32.7-59.1,36.3l-58.9-109.5l19-9.8l61.5,13.4L1417.2,1801.7z"/>
</g>
<g>
	<path class="st2" d="M2030.7,2557.2h-322.8c-28.8,0-52.2-23.4-52.2-52.2v-93.6c0-28.8,23.4-52.2,52.2-52.2h322.8
		c9.2,0,16.7,7.5,16.7,16.7v164.5C2047.4,2549.7,2039.9,2557.2,2030.7,2557.2z M1707.9,2392.7c-10.3,0-18.7,8.4-18.7,18.7v93.6
		c0,10.3,8.4,18.7,18.7,18.7h306v-131.1h-306V2392.7z"/>
</g>
<g>
	<path class="st7" d="M1943.1,2275.2H1841l-200-436v-0.1l-75.2-163.9l-238.8-52.1l-82.6-18l-80.7-17.6l-82.6-18l-81.6-17.8l-1.2-0.3
		l-81.4-17.8l-472.2-103.2c-11-2.4-20.5-8.5-27.1-16.8c-6.7-8.3-10.6-18.8-10.6-30.1c0-28.6,24.9-50.9,53.3-47.6l563.1,63.9
		l88.9,10.1l87.8,9.9l88.9,10.1l86.9,9.8l88.9,10.1l133.4,15.1c45.3,5.1,83.5,36,98.1,79.2L1943.1,2275.2z"/>
	<path class="st2" d="M1946.8,2277.8h-107.5l-0.7-1.5L1564,1677.5L444.2,1432.9c-11.3-2.5-21.4-8.7-28.6-17.7
		c-7.2-8.9-11.2-20.2-11.2-31.7c0-14.4,6.2-28.1,16.9-37.7c10.7-9.6,25.1-14.1,39.3-12.5l1137.9,129.1c46.1,5.2,85.4,37,100.3,80.9
		L1946.8,2277.8z M1842.7,2272.5h96.8L1693.9,1545c-14.2-42-51.9-72.4-96-77.4L460,1338.5c-12.8-1.5-25.7,2.6-35.3,11.2
		c-9.6,8.6-15.1,20.9-15.1,33.8c0,10.3,3.6,20.5,10,28.5s15.5,13.6,25.6,15.9L1567.6,1673l0.5,1.2L1842.7,2272.5z"/>
</g>
<g>
	<polygon class="st2" points="1112.3,1409.9 999.5,1551.6 998.3,1551.3 917,1533.5 1023.4,1399.8 	"/>
</g>
<g>
	<polygon class="st2" points="1289,1429.9 1163.7,1587.4 1081.1,1569.4 1200.2,1419.8 	"/>
</g>
<g>
	<polygon class="st2" points="1464.8,1449.9 1327,1623.1 1244.4,1605.1 1375.9,1439.8 	"/>
</g>
<g class="st3">
	<path class="st4" d="M1943.1,2275.2h-41.7l-234.1-693.4c-14.6-43.2-52.8-74.1-98.1-79.2L431.3,1373.5c-8.5-1-16.6,0.3-23.8,3.4
		c3.5-25.3,26.7-43.9,52.9-41L1598.2,1465c45.3,5.1,83.5,36,98.1,79.2L1943.1,2275.2z"/>
</g>
<g>
	<path class="st2" d="M1462.5,1425.5c-1.2,0-2.4-0.1-3.6-0.4l-499.3-109c-10-2.2-18.5-8.1-24-16.7s-7.4-18.8-5.2-28.8l15.4-70.6
		c4.5-20.6,24.9-33.7,45.5-29.2l0,0l407.3,88.9c59.7,13,97.7,72.2,84.7,132l-4.5,20.7C1477.1,1420.2,1470.1,1425.5,1462.5,1425.5z
		 M983.2,1203.3c-2.2,0-4.2,1.5-4.7,3.8l-15.4,70.6c-0.4,1.6,0.2,2.9,0.7,3.6c0.5,0.8,1.4,1.8,3,2.1l482.9,105.4l1-4.4
		c9.1-41.7-17.4-83.1-59.1-92.2l-407.3-88.9C983.9,1203.3,983.5,1203.3,983.2,1203.3z"/>
</g>
<g>
	<path class="st2" d="M947,1289.4c-1.2,0-2.4-0.1-3.6-0.4l-520.3-113.6c-4.3-0.9-8.1-3.6-10.5-7.3c-2.4-3.7-3.2-8.3-2.3-12.6
		l14.8-67.6c2-9,10.9-14.7,19.9-12.8l520.3,113.6c4.3,0.9,8.1,3.6,10.5,7.3c2.4,3.7,3.2,8.3,2.3,12.6l-14.8,67.6
		C961.7,1284,954.7,1289.4,947,1289.4z M446.6,1146.3l487.7,106.5l7.6-35l-487.7-106.5L446.6,1146.3z"/>
</g>
<g>
	<rect x="1841" y="2275.2" class="st5" width="168.6" height="100.8"/>
	<path class="st2" d="M2012.2,2378.6h-173.9v-106.1h173.9V2378.6z M1843.6,2373.4H2007v-95.6h-163.4V2373.4z"/>
</g>
<g class="st3">
	<rect x="1841" y="2275.2" class="st4" width="168.6" height="30.4"/>
</g>
<g>
	<path class="st2" d="M2009.6,2392.7H1841c-9.2,0-16.7-7.5-16.7-16.7v-100.8c0-9.2,7.5-16.7,16.7-16.7h168.6
		c9.2,0,16.7,7.5,16.7,16.7V2376C2026.3,2385.2,2018.8,2392.7,2009.6,2392.7z M1857.7,2359.3h135.2v-67.4h-135.2V2359.3z"/>
</g>
<g>
	<path class="st7" d="M1412.8,1650.2l-8.9,30.1c-2.5,8.5-6.2,16.4-10.8,23.5c-16.3,25-44.4,40.4-74.6,40.4c-6.5,0-13.1-0.7-19.7-2.2
		c-36.4-8.3-63.3-38.1-68.5-74.2c-0.6-4.1-0.9-8.3-0.9-12.6v-45.1L1412.8,1650.2z"/>
	<path class="st2" d="M1318.6,1746.9c-6.7,0-13.6-0.8-20.3-2.3c-36.8-8.4-65.2-39.1-70.5-76.4c-0.6-4.3-0.9-8.7-0.9-12.9V1607
		l189.2,41.3l-9.7,32.8c-2.6,8.7-6.3,16.9-11.1,24.2C1378.4,1731.3,1349.7,1746.9,1318.6,1746.9z M1232.2,1613.4v41.8
		c0,4,0.3,8.1,0.8,12.2c5,35.2,31.7,64.2,66.4,72.1c6.3,1.4,12.7,2.1,19.1,2.1c29.3,0,56.4-14.7,72.4-39.2
		c4.5-6.9,8.1-14.6,10.5-22.8l8.1-27.4L1232.2,1613.4z"/>
</g>
<g>
	<circle class="st7" cx="424.1" cy="1129.9" r="76.9"/>
	<path class="st2" d="M424.1,1209.4c-43.8,0-79.5-35.7-79.5-79.5s35.7-79.5,79.5-79.5s79.5,35.7,79.5,79.5
		S467.9,1209.4,424.1,1209.4z M424.1,1055.6c-41,0-74.3,33.3-74.3,74.3s33.3,74.3,74.3,74.3s74.3-33.3,74.3-74.3
		S465.1,1055.6,424.1,1055.6z"/>
</g>
<g class="st6">
	<path class="st2" d="M514.5,1217.2c-13.4,22.6-37.9,37.6-66.1,37.6c-39.6,0-72.2-29.9-76.4-68.4c13.7,12.6,32,20.3,52,20.3
		c27.1,0,50.8-13.9,64.5-35.1c8,6.4,14.4,14.9,18.2,24.9L514.5,1217.2z"/>
</g>
<g class="st3">
	<path class="st4" d="M484.1,1178c1-5,1.5-10.2,1.5-15.5c0-42.5-34.4-76.9-76.9-76.9c-24.3,0-45.8,11.2-60,28.8
		c7.2-35,38.3-61.4,75.4-61.4c42.5,0,76.9,34.5,76.9,76.9C501,1148.1,494.6,1164.8,484.1,1178z"/>
</g>
<g>
	<path class="st7" d="M1330.1,1434.5l14-49.5c9.8-34.7,41.5-58.6,77.5-58.6l0,0c41.2,0,75.7,31.1,80.1,72l6,56.3"/>
	<path class="st2" d="M1505.1,1455l-6-56.3c-4.2-39.7-37.5-69.7-77.5-69.7c-34.7,0-65.5,23.3-75,56.7l-14,49.5l-5-1.4l14-49.5
		c10.1-35.6,43-60.5,80-60.5c42.6,0,78.2,32,82.7,74.3l6,56.3L1505.1,1455z"/>
</g>
<g class="st3">
	<path class="st4" d="M1507.6,1454.7l-34.1-3.9l-3.8-36.4c-2.2-20.5-11.9-38.5-26.3-51.3c-14.3-12.9-33.3-20.7-53.8-20.7
		c-6.6,0-13,0.8-19.2,2.4c14.1-11.6,32-18.4,51.2-18.4c20.6,0,39.5,7.7,53.8,20.7c14.4,12.9,24.1,30.9,26.3,51.4L1507.6,1454.7z"/>
</g>
<g>
	<path class="st2" d="M1943.1,2291.9c-7,0-13.5-4.4-15.8-11.4l-246.7-731c-12.4-36.9-45.5-63.5-84.1-67.9l-1138-129.1
		c-9-1-17.6,1.7-24.3,7.7c-6.7,6-10.4,14.3-10.4,23.3c0,14.6,10.3,27.4,24.6,30.5l1121.1,244.9c5.1,1.1,9.4,4.6,11.6,9.4
		l275.2,599.9c3.9,8.4,0.2,18.3-8.2,22.2c-8.4,3.8-18.3,0.2-22.2-8.2l-271.7-592.3L441.1,1446.7c-29.5-6.4-50.9-33-50.9-63.2
		c0-18.4,7.9-36,21.6-48.2c13.7-12.3,32.1-18.1,50.4-16l1137.9,129.1c51.5,5.8,95.5,41.3,112.1,90.5l246.7,731
		c3,8.8-1.7,18.2-10.5,21.2C1946.7,2291.6,1944.9,2291.9,1943.1,2291.9z"/>
</g>
<g>
	<path class="st2" d="M424.1,1223.5c-51.6,0-93.6-42-93.6-93.6s42-93.6,93.6-93.6s93.6,42,93.6,93.6S475.7,1223.5,424.1,1223.5z
		 M424.1,1069.7c-33.2,0-60.2,27-60.2,60.2s27,60.2,60.2,60.2s60.2-27,60.2-60.2C484.3,1096.7,457.3,1069.7,424.1,1069.7z"/>
</g>
<g>
	<path class="st2" d="M1507.6,1471.4c-8.4,0-15.7-6.4-16.6-15l-6-56.3c-3.5-32.5-30.7-57.1-63.5-57.1c-28.4,0-53.7,19.1-61.4,46.4
		l-14,49.5c-2.5,8.9-11.8,14-20.6,11.5c-8.9-2.5-14-11.8-11.5-20.6l14-49.5c11.8-41.7,50.3-70.8,93.6-70.8c49.9,0,91.4,37.4,96.7,87
		l6,56.3c1,9.2-5.7,17.4-14.9,18.4C1508.8,1471.4,1508.2,1471.4,1507.6,1471.4z"/>
</g>
<g>
	<path class="st2" d="M1318.5,1761c-7.7,0-15.5-0.8-23.3-2.6c-48.5-11-82.4-53.4-82.4-103.1v-45c0-9.2,7.5-16.7,16.7-16.7
		s16.7,7.5,16.7,16.7v45c0,34,23.2,63,56.3,70.5c37.1,8.4,74.6-13.6,85.3-50.1l8.8-30.1c2.6-8.9,11.9-13.9,20.8-11.3
		s13.9,11.9,11.3,20.8l-8.8,30.1C1406.6,1730.8,1364.4,1761,1318.5,1761z"/>
</g>
<g>
	<path class="st7" d="M1037.7,2506.7l11.2-141.8c1.9-24.5-28.6-37-44.5-18.3l-101,119.2"/>
	<path class="st2" d="M1040.3,2507l-5.2-0.4l11.2-141.8c0.8-10-4.7-18.9-14-22.7c-9.3-3.8-19.4-1.3-25.9,6.3l-101,119.2l-4-3.4
		l101-119.2c8-9.4,20.5-12.4,31.9-7.8c11.4,4.7,18.1,15.7,17.2,28L1040.3,2507z"/>
</g>
<g>
	<path class="st7" d="M431.8,2322.2l605.9,184.6c-237.1,240.9-475.7,368-628.2-42L431.8,2322.2z"/>
	<path class="st2" d="M671.6,2733.6c-14,0-27.6-1.4-40.9-4.3c-91.8-19.6-165-105.9-223.6-263.6l-0.2-0.6l0.1-0.7l22.7-145.6
		l612.9,186.7l-3,3.1C889.7,2660.9,771.3,2733.6,671.6,2733.6z M412.3,2464.5C470.2,2620,542,2705,631.8,2724.2
		c105.4,22.6,232.9-46.2,401-216.2L434,2325.5L412.3,2464.5z"/>
</g>
<g class="st6">
	<path class="st2" d="M409.6,2464.8c152.5,410,391.1,282.9,628.2,42l-50.9-15.5c-212.3,191.4-418.5,256.1-555.4-112l8.5-54.6
		l-8.2-2.5L409.6,2464.8z"/>
</g>
<g class="st3">
	<path class="st4" d="M426,2359.7l581.4,177.2c10.1-9.8,20.2-19.9,30.3-30.1l-605.9-184.6L426,2359.7z"/>
</g>
<g>
	<path class="st2" d="M671.5,2747.7c-14.9,0-29.5-1.5-43.7-4.6c-96.9-20.7-173.4-109.9-233.9-272.5c-1-2.7-1.3-5.6-0.8-8.4
		l22.3-142.6c0.7-4.8,3.5-9,7.6-11.6s9.1-3.2,13.8-1.8l605.9,184.6c5.6,1.7,9.9,6.2,11.3,11.9s-0.2,11.7-4.3,15.8
		C897,2673.6,775.3,2747.7,671.5,2747.7z M426.8,2463c55.2,146.4,125.1,229.6,208,247.4c96.8,20.7,215.3-41.5,371.5-195.7
		l-560.9-170.9L426.8,2463z"/>
</g>
<g>
	<path class="st2" d="M1037.8,2523.5c-0.4,0-0.9,0-1.3-0.1c-9.2-0.7-16.1-8.8-15.4-18l11.2-141.8c0.4-5.6-3.5-7.9-5.3-8.6
		c-1.7-0.7-6.2-1.9-9.8,2.4l-101,119.2c-6,7-16.5,7.9-23.6,1.9c-7-6-7.9-16.5-1.9-23.6l101-119.2c12-14.2,30.8-18.7,48-11.7
		c17.2,7.1,27.3,23.6,25.9,42.1l-11.2,141.8C1053.7,2516.8,1046.4,2523.5,1037.8,2523.5z"/>
</g>
<g class="st6">
	<path class="st2" d="M424.1,1420.2l11.1,50c5.1,23,20.7,42.3,42.1,52.2l127.2,58.7l13.7-112.8L424.1,1420.2z"/>
</g>
<g class="st6">
	<path class="st2" d="M1412.8,1650.2l-8.9,30.1c-2.5,8.5-6.2,16.4-10.8,23.5l-162.7-36c-0.6-4.1-0.9-8.3-0.9-12.6v-45.1
		L1412.8,1650.2z"/>
</g>
<g class="st6">
	<polygon class="st2" points="443.3,1931.6 568.5,2054.7 568.5,2355.9 443.3,2305.7 	"/>
</g>
<g class="st6">
	<path class="st2" d="M1653.3,1813.1l-12.4,26l-75.2-163.9l-567.4-123.9l-36.6-16.4l41.4-22.9c13.4-7.4,29-10.1,44.1-7.5l501.5,84.4
		c24.5,4.1,45.5,20,56,42.5l48.6,103.7C1665.1,1759.9,1665,1788.5,1653.3,1813.1z"/>
</g>
<g>
	<path class="st2" d="M775,3221.8c60.7-9.5,121.4-11.7,182.1-12.9c60.7-1.3,121.4-0.6,182.1,0.1l91,0.6h91h182.1h728.2h728.2h364.1
		h91l45.5-0.4l45.5-0.8c30.3-0.4,60.7,0.2,91,1.8c15.2,0.9,30.3,2.1,45.5,4s30.3,4.1,45.5,7.7c3.4,0.8,5.5,4.2,4.7,7.5
		c-0.6,2.4-2.4,4.1-4.7,4.7c-15.2,3.6-30.3,5.8-45.5,7.7s-30.3,3.1-45.5,4c-30.3,1.5-60.7,2.1-91,1.8l-45.5-0.8l-45.5-0.4h-91
		h-364.1h-728.2h-728.2h-182.1h-91l-91,0.6c-60.7,0.7-121.4,1.4-182.1,0.1c-60.7-1.2-121.4-3.4-182.1-12.9c-3.4-0.5-5.7-3.7-5.1-7.1
		C770.2,3224.3,772.4,3222.3,775,3221.8z"/>
</g>
<g>
	<g>
		<ellipse class="st5" cx="2812.6" cy="3110.3" rx="113" ry="113"/>
		<path class="st2" d="M2812.6,3225.8c-63.7,0-115.6-51.8-115.6-115.6s51.8-115.6,115.6-115.6c63.7,0,115.6,51.8,115.6,115.6
			S2876.3,3225.8,2812.6,3225.8z M2812.6,2999.9c-60.8,0-110.3,49.5-110.3,110.3s49.5,110.3,110.3,110.3s110.3-49.5,110.3-110.3
			S2873.4,2999.9,2812.6,2999.9z"/>
	</g>
	<g>
		<ellipse class="st1" cx="2812.7" cy="3110.3" rx="58.7" ry="58.7"/>
	</g>
	<g class="st3">
		<path class="st4" d="M2871.3,3117.2c0,32.4-26.3,58.8-58.8,58.8c-32.4,0-58.8-26.3-58.8-58.8c0-1.1,0.1-2.3,0.1-3.5
			c1.8,30.8,27.4,55.3,58.7,55.3s56.9-24.4,58.7-55.3C2871.3,3114.9,2871.3,3116.1,2871.3,3117.2z"/>
	</g>
	<g class="st6">
		<path class="st2" d="M2871.3,3110.3c0,3-0.2,6.1-0.7,9c-4.4-28.1-28.7-49.6-58.1-49.6s-53.7,21.5-58.1,49.6
			c-0.5-2.9-0.7-5.9-0.7-9c0-32.4,26.3-58.7,58.8-58.7C2845,3051.5,2871.3,3077.8,2871.3,3110.3z"/>
	</g>
	<g>
		<ellipse class="st2" cx="2812.7" cy="3110.3" rx="30.9" ry="30.9"/>
	</g>
	<g class="st6">
		<path class="st2" d="M2843.5,3124.2c0,17.1-13.8,30.9-30.9,30.9c-17.1,0-30.9-13.8-30.9-30.9c0-2.4,0.3-4.7,0.8-7
			c3.1,13.7,15.4,23.9,30.1,23.9s27-10.2,30.1-23.9C2843.2,3119.4,2843.5,3121.8,2843.5,3124.2z"/>
	</g>
	<g class="st3">
		<path class="st4" d="M2829.1,3105.5c0,0.6-0.1,1.2-0.2,1.8c-1.1-6.8-8-12-16.4-12s-15.3,5.2-16.4,12c-0.1-0.6-0.2-1.2-0.2-1.8
			c0-7.6,7.4-13.8,16.5-13.8S2829.1,3097.8,2829.1,3105.5z"/>
	</g>
	<g>
		<path class="st2" d="M2812.6,3238.9c-70.9,0-128.6-57.7-128.6-128.6s57.7-128.6,128.6-128.6c70.9,0,128.6,57.7,128.6,128.6
			S2883.5,3238.9,2812.6,3238.9z M2812.6,3013c-53.6,0-97.3,43.6-97.3,97.3s43.6,97.3,97.3,97.3c53.6,0,97.3-43.6,97.3-97.3
			S2866.2,3013,2812.6,3013z"/>
	</g>
</g>
<g class="st3">
	<path class="st4" d="M3235.4,2988.9c0,1.2-0.1,2.4-0.2,3.6c-1.9-19.5-19.3-34.8-40.4-34.8s-38.4,15.3-40.3,34.8
		c-0.1-1.2-0.2-2.4-0.2-3.6c0-21.2,18.1-38.4,40.5-38.4S3235.4,2967.7,3235.4,2988.9z"/>
</g>
</svg>
